<svg width="800" height="800" viewBox="0 0 800 800" fill="none" xmlns="http://www.w3.org/2000/svg">
<path fill-rule="evenodd" clip-rule="evenodd" d="M607.929 715.991C610.025 706.64 615.963 696.739 615.963 696.739C608.904 697.225 598.173 707.448 598.173 707.448C603.539 690.653 613.28 671.669 613.28 671.669C596.001 679.397 582.197 701.141 576.851 710.555C561.125 708.456 542.432 706.66 521.516 705.255C523.164 697.864 523.908 689.435 523.908 689.435C522.072 693.816 515.436 700.144 515.436 700.144C517.837 687.732 518.543 670.695 518.543 670.695C510.123 680.475 503.009 694.959 499.045 703.94C475.143 702.736 449.007 702.012 421.545 701.873C394.084 702.012 367.948 702.736 344.045 703.94C340.081 694.959 332.968 680.475 324.548 670.695C324.548 670.695 325.253 687.732 327.655 700.144C327.655 700.144 321.019 693.816 319.183 689.435C319.183 689.435 319.927 697.864 321.575 705.255C300.66 706.66 281.967 708.456 266.24 710.555C260.895 701.141 247.089 679.397 229.811 671.669C229.811 671.669 239.552 690.653 244.919 707.448C244.919 707.448 234.187 697.225 227.128 696.739C227.128 696.739 233.067 706.64 235.161 715.991C221.24 719.293 213.432 722.999 213.432 726.916C213.432 740.385 305.749 751.372 421.545 751.96C537.341 751.372 629.66 740.385 629.66 726.916C629.66 722.999 621.851 719.293 607.929 715.991Z" fill="black"/>
<path fill-rule="evenodd" clip-rule="evenodd" d="M280 724.031C280 724.031 276.853 716.311 275.421 714.899C273.989 713.488 266.805 711.625 266.805 711.625L264.599 704.267C261.899 704.025 261.899 703.515 259.763 702.433C257.627 701.352 256.559 699.82 254.856 698.573C253.155 697.327 248.471 698.033 248.471 698.033L244.633 700.932L239.609 711.204C239.609 711.204 234.021 720.997 234.773 724.06C235.524 727.124 246.792 732.471 254.445 734.573C262.099 736.676 271.279 734.753 276.232 734.813C281.185 734.875 286.665 734.184 286.665 734.184C286.665 734.184 285.352 729.557 284.976 728.867C284.601 728.176 280 724.031 280 724.031Z" fill="#8A7B89"/>
<path fill-rule="evenodd" clip-rule="evenodd" d="M280 724.031C280 724.031 276.853 716.311 275.421 714.899C273.989 713.488 266.805 711.625 266.805 711.625L264.599 704.267C261.899 704.025 261.899 703.515 259.763 702.433C257.627 701.352 256.559 699.82 254.856 698.573C253.72 697.741 251.253 697.78 249.741 697.897L249.973 698.063C249.973 698.063 253.343 698.664 254.129 699.489C254.916 700.316 257.228 701.637 256.077 701.953C254.928 702.268 250.291 702.268 250.291 702.268C250.291 702.268 257.092 703.871 259.635 703.815C259.635 703.815 261.524 704.731 263.52 704.881C263.52 704.881 264.74 708.456 264.811 710.619C264.811 710.619 259.857 713.021 257.181 717.377C257.181 717.377 263.356 713.141 266.641 713.263C266.641 713.263 273.356 715.275 274.695 716.776C276.033 718.279 277.817 722.753 271.713 724.436L275.259 724.856C275.259 724.856 279.296 724.016 280.376 725.367C281.456 726.719 284.085 730.203 284.085 730.203C284.085 730.203 285.019 732.251 285.509 734.315C286.236 734.237 286.665 734.184 286.665 734.184C286.665 734.184 285.352 729.557 284.976 728.867C284.601 728.176 280 724.031 280 724.031Z" fill="#FFFEF4"/>
<path fill-rule="evenodd" clip-rule="evenodd" d="M274.165 726.013L274.001 728.025C275.927 724.24 278.509 722.829 278.509 722.829C272.407 723.996 267.345 725.62 261.301 722.228C265.808 727.035 274.165 726.013 274.165 726.013Z" fill="black"/>
<path fill-rule="evenodd" clip-rule="evenodd" d="M274.845 730.789C276.443 734.455 270.292 733.072 270.292 733.072C270.033 731.78 271.559 728.207 271.559 728.207C269.024 729.739 267.216 733.043 267.216 733.043C262.004 734.455 256.909 732.171 256.909 732.171C259.375 732.532 262.544 732.171 262.544 732.171C257.473 731.451 255.313 728.747 255.313 728.747C256.159 724.992 258.507 721.508 258.507 721.508C259.421 721.508 259.985 720.757 259.985 720.757C258.436 720.336 257.825 719.105 257.825 719.105C256.663 720.127 254.927 722.98 254.927 722.98C258.401 714.569 265.256 712.045 265.256 712.045C254.128 712.647 248.823 718.955 248.823 718.955C249.949 719.885 250.16 721.779 250.16 721.779C248.752 724.181 247.883 730.669 247.883 730.669C247.883 730.669 242.272 723.431 242.32 722.199C242.367 720.967 247.696 718.024 247.696 718.024C244.127 716.823 242.084 714.419 242.084 714.419C240.747 715.68 239.173 720.127 239.173 720.127C240.583 710.515 247.531 704.567 247.531 704.567C253.659 705.288 258.8 703.335 258.8 703.335C252.508 703.455 247.531 700.481 247.86 699.34C248.188 698.199 252.719 697.899 252.719 697.899L247.343 697.537C243.845 699.009 240.652 704.387 240.652 704.387C235.019 711.836 229.947 727.215 229.947 727.215C236.333 731.42 247.367 736.467 259.48 737.188C271.595 737.908 286.665 734.184 286.665 734.184C279.585 734.207 279.731 730.547 274.845 730.789Z" fill="black"/>
<path fill-rule="evenodd" clip-rule="evenodd" d="M609.381 482.077C602.965 470.672 580.865 449.641 576.232 446.791C571.599 443.939 536.668 432.712 522.411 431.643C508.153 430.573 490.571 427.513 455.935 429.681C421.299 431.851 371.639 432.177 346.152 406.871C320.667 381.563 329.577 373.721 332.608 372.117C335.637 370.513 337.599 376.216 339.38 369.088C341.163 361.959 340.093 355.899 340.805 352.692C341.519 349.484 346.152 349.127 345.796 344.315C345.439 339.503 344.905 327.384 344.905 326.315C344.905 325.445 344.787 299.515 344.744 289.823C345.191 289.547 345.615 289.283 346.007 289.036C346.573 279.969 348.024 268.428 348.817 262.497L348.828 261.705C348.833 261.365 348.847 261.088 348.867 260.864C346.461 261.193 333.925 259.804 324.819 258.615C315.712 257.893 321.451 259.389 316.46 256.875C311.471 254.36 310.671 252.419 306.7 244.003C302.731 235.585 302.381 234.96 300.955 231.547C299.529 228.133 297.925 225.44 297.035 217.356C296.144 209.273 297.035 213.225 297.569 206.937C298.104 200.651 297.569 202.267 302.135 199.873C306.699 197.479 317.352 199.213 331.075 199.213C344.797 199.213 354.421 198.855 356.025 198.855C356.583 198.855 358.653 200.313 361.204 202.336C359.623 197.131 357.873 193.328 357.296 190.951C355.692 184.356 356.939 181.504 357.473 174.732C358.009 167.96 364.068 153.524 369.949 128.929C375.831 104.335 366.92 85.2654 346.603 72.2548C326.285 59.2454 313.276 59.6014 313.276 59.6014C327.712 70.8294 325.395 109.324 325.395 109.324C325.395 109.324 323.433 120.019 322.364 126.523C321.296 133.028 318.088 144.256 316.751 147.197C315.413 150.137 304.899 146.929 304.899 146.929C304.811 138.553 302.849 133.207 302.849 133.207C299.913 151.573 284.525 158.117 277.492 160.172C270.459 158.117 255.071 151.573 252.135 133.207C252.135 133.207 250.173 138.553 250.085 146.929C250.085 146.929 239.571 150.137 238.233 147.197C236.897 144.256 233.689 133.028 232.62 126.523C231.551 120.019 229.589 109.324 229.589 109.324C229.589 109.324 227.272 70.8294 241.708 59.6014C241.708 59.6014 228.699 59.2454 208.381 72.2548C188.064 85.2654 179.153 104.335 185.035 128.929C190.917 153.524 196.976 167.96 197.511 174.732C198.045 181.504 199.292 184.356 197.689 190.951C197.111 193.328 195.361 197.132 193.78 202.336C196.331 200.313 198.401 198.855 198.959 198.855C200.563 198.855 210.187 199.213 223.909 199.213C237.632 199.213 248.285 197.479 252.851 199.873C257.415 202.267 256.881 200.651 257.415 206.937C257.949 213.225 258.84 209.273 257.949 217.356C257.059 225.44 255.455 228.133 254.029 231.547C252.603 234.96 252.253 235.585 248.284 244.003C244.313 252.419 243.513 254.36 238.524 256.875C233.533 259.389 239.273 257.893 230.165 258.615C221.059 259.804 208.523 261.193 206.117 260.864H206.116C206.137 261.088 206.151 261.363 206.156 261.705C206.245 268.033 206.245 268.656 205.977 273.647L201.613 319.005C201.613 319.005 198.761 333.62 191.811 345.025C191.811 345.025 197.475 343.909 202.325 340.837C202.325 340.837 206.247 346.363 206.425 348.501C206.604 350.64 206.871 351.708 206.068 354.471C205.267 357.233 203.573 368.907 201.079 377.283C198.583 385.659 190.385 432.532 190.385 432.532L190.028 485.285C190.028 485.285 190.741 561.92 233.159 611.465C275.575 661.011 286.624 643.901 299.812 652.812C313.001 661.723 326.901 673.843 330.823 681.327C334.744 688.812 339.377 680.436 345.615 689.347C351.852 698.257 351.852 700.219 353.1 703.248C354.348 706.277 360.585 728.733 363.616 730.337C366.645 731.941 373.24 732.476 379.655 730.695C386.071 728.912 387.675 729.268 392.487 725.347C397.299 721.427 398.012 723.565 401.576 716.436C405.14 709.308 404.428 711.803 408.705 702C412.983 692.199 412.625 689.169 416.368 685.069C420.111 680.971 428.844 668.673 444.348 665.467C459.853 662.259 475.003 658.872 478.923 657.447C482.844 656.02 484.091 652.277 487.833 655.129C491.576 657.981 490.864 657.624 494.428 662.08C497.992 666.536 498.884 663.505 499.419 670.1C499.953 676.693 498.884 674.912 499.953 680.971C501.023 687.031 500.844 685.069 501.2 692.02C501.557 698.971 500.844 697.367 501.913 702.001C502.983 706.635 501.913 705.031 504.587 708.773C507.26 712.516 503.517 710.912 508.329 713.051C513.141 715.189 513.141 715.545 517.24 715.545C521.34 715.545 523.656 715.901 529.537 714.476C535.419 713.051 539.34 711.625 543.081 709.843C546.825 708.06 547.003 709.308 548.428 704.317C549.855 699.328 547.359 702.179 552.705 688.635C558.052 675.089 562.329 656.376 562.329 656.376C562.329 656.376 585.5 610.04 586.569 592.573C587.639 575.108 586.569 543.029 585.856 534.119C585.143 525.207 582.292 511.663 584.787 511.663C587.281 511.663 599.757 521.643 606.529 520.573C613.303 519.504 617.58 524.495 617.223 510.949C616.867 497.404 615.797 493.484 609.381 482.077Z" fill="#FFF9FC"/>
<path fill-rule="evenodd" clip-rule="evenodd" d="M576.331 619.345C565.897 650.039 545.321 662.475 542.469 648.573C539.619 634.672 555.657 600.097 555.657 600.097C545.32 611.86 538.189 614.889 538.189 614.889C561.715 588.156 552.983 545.027 552.983 545.027C516.559 639.591 429.117 636.453 429.117 636.453C426.74 602.141 408.088 589.047 408.088 589.047C417.356 621.84 405.057 653.207 386.88 654.097C368.701 654.989 348.207 631.285 348.207 631.285C352.483 653.741 378.147 667.643 378.147 667.643C320.047 648.039 333.592 560.711 333.592 560.711C329.501 562.091 325.935 563.936 322.82 566.088C303.951 605.628 317.405 641.253 317.405 641.253C301.519 642.157 305.44 592.791 305.44 592.791L305.697 588.58C302.173 597.513 301.665 604.929 301.665 604.929C301.665 604.929 307.22 641.088 309.716 645.721C312.211 650.355 326.112 668.889 326.112 668.889C326.112 668.889 327.036 672.34 328.435 677.693C329.429 678.989 330.237 680.211 330.823 681.327C334.744 688.812 339.377 680.436 345.615 689.347C351.852 698.257 351.852 700.219 353.1 703.248C354.348 706.277 360.585 728.733 363.616 730.337C366.645 731.941 373.24 732.476 379.655 730.695C386.071 728.912 387.675 729.268 392.487 725.347C397.299 721.427 398.012 723.565 401.576 716.436C405.14 709.308 404.428 711.803 408.705 702C412.983 692.199 412.625 689.169 416.368 685.069C420.111 680.971 428.844 668.673 444.348 665.467C459.853 662.259 475.003 658.872 478.923 657.447C482.844 656.02 484.091 652.277 487.833 655.129C491.576 657.981 490.864 657.624 494.428 662.08C497.992 666.536 498.884 663.505 499.419 670.1C499.953 676.693 498.884 674.912 499.953 680.971C501.023 687.031 500.844 685.069 501.2 692.02C501.557 698.971 500.844 697.367 501.913 702.001C502.983 706.635 501.913 705.031 504.587 708.773C507.26 712.516 503.517 710.912 508.329 713.051C513.141 715.189 513.141 715.545 517.24 715.545C521.34 715.545 523.656 715.901 529.537 714.476C535.419 713.051 539.34 711.625 543.081 709.843C546.825 708.06 547.003 709.308 548.428 704.317C549.855 699.328 547.359 702.179 552.705 688.635C558.052 675.089 562.329 656.376 562.329 656.376C562.329 656.376 573.583 633.871 580.767 614.315C579.02 614.352 577.496 615.919 576.331 619.345Z" fill="#6CA8DF"/>
<path fill-rule="evenodd" clip-rule="evenodd" d="M250.005 557.859C257.312 573.541 269.431 586.195 269.431 586.195C234.856 568.373 225.945 518.828 225.945 518.828C233.787 535.937 248.044 544.848 248.044 544.848C227.728 516.333 232.004 479.799 232.004 479.799C224.163 471.6 209.727 465.007 209.727 465.007C235.768 469.639 261.061 498.919 261.061 498.919C266.58 499.759 261.768 486.215 255.352 477.839C248.936 469.461 250.54 473.561 242.877 467.501C235.213 461.441 236.283 460.729 227.193 452.353C218.104 443.976 220.064 443.976 214.005 434.352C207.945 424.729 205.272 421.343 205.272 421.343C205.272 421.343 197.529 419.885 192.588 420.153C191.289 427.363 190.385 432.532 190.385 432.532L190.028 485.285C190.028 485.285 190.741 561.92 233.159 611.465C243.948 624.069 252.705 632.353 259.988 637.855C262.564 638.32 265.583 638.892 269.253 639.661C291.352 644.296 281.728 641.444 288.5 642.157C295.273 642.869 301.332 641.801 303.115 636.811C304.897 631.82 300.54 594.433 300.54 594.433C272.479 589.125 250.005 557.859 250.005 557.859Z" fill="#6CA8DF"/>
<path fill-rule="evenodd" clip-rule="evenodd" d="M252.851 199.873C248.285 197.479 237.633 199.213 223.909 199.213C210.187 199.213 200.563 198.855 198.959 198.855C198.401 198.855 196.331 200.313 193.78 202.335C190.975 211.561 188.693 225.189 194.391 243.08C200.316 261.683 203.524 260.987 205.033 260.291C205.672 259.996 206.007 259.703 206.116 260.864H206.117C208.523 261.193 221.059 259.804 230.165 258.615C233.409 258.357 234.769 258.383 235.403 258.407C236.545 258.451 235.311 258.493 238.524 256.875C243.515 254.36 244.313 252.419 248.284 244.003C252.253 235.587 252.603 234.96 254.029 231.547C255.455 228.133 257.059 225.439 257.949 217.356C258.841 209.273 257.949 213.225 257.415 206.937C256.881 200.651 257.415 202.267 252.851 199.873Z" fill="#FFF9FC"/>
<path fill-rule="evenodd" clip-rule="evenodd" d="M356.025 198.855C354.421 198.855 344.797 199.213 331.075 199.213C317.352 199.213 306.7 197.479 302.135 199.873C297.569 202.267 298.104 200.651 297.569 206.937C297.035 213.225 296.144 209.273 297.035 217.356C297.925 225.439 299.529 228.133 300.955 231.547C302.381 234.96 302.731 235.587 306.7 244.003C310.671 252.419 311.471 254.36 316.46 256.875C319.673 258.493 318.439 258.451 319.581 258.407C320.215 258.383 321.575 258.357 324.819 258.615C333.927 259.804 346.461 261.193 348.867 260.864H348.868C348.977 259.703 349.312 259.996 349.951 260.291C351.461 260.987 354.668 261.683 360.593 243.08C366.291 225.189 364.009 211.561 361.204 202.335C358.653 200.313 356.583 198.855 356.025 198.855Z" fill="#FFF9FC"/>
<path fill-rule="evenodd" clip-rule="evenodd" d="M323.947 258.377C318.957 256.952 314.145 251.249 312.363 250.001C310.58 248.753 307.551 251.249 297.748 258.021C287.947 264.793 286.164 271.744 283.669 279.051C282.045 283.808 279.363 288.64 277.492 292.123C275.621 288.64 272.94 283.808 271.315 279.051C268.82 271.744 267.037 264.793 257.236 258.021C247.433 251.249 244.404 248.753 242.621 250.001C240.839 251.249 236.027 256.952 231.037 258.377C228.088 259.22 221.153 260.685 216.236 262.233L215.193 260.352L206.147 261.352C206.151 261.461 206.153 261.579 206.156 261.705C206.245 268.033 206.245 268.656 205.977 273.647L201.613 319.005C201.613 319.005 198.761 333.62 191.811 345.025C191.811 345.025 197.475 343.909 202.325 340.837C202.325 340.837 206.247 346.363 206.425 348.501C206.532 349.788 206.671 350.688 206.591 351.803C207.425 348.004 209.129 342.469 212.685 341.488C212.685 341.488 223.983 363.955 249.825 373.935C249.825 373.935 236.28 373.757 225.587 367.876C225.587 367.876 243.231 390.688 270.141 391.401C270.141 391.401 268.045 395.457 258.4 398.508L258.755 398.485L258.577 398.523L255.904 399.963C255.904 399.963 242.539 401.567 237.013 398.716C231.488 395.864 229.707 394.081 224.181 388.735C218.656 383.388 213.311 377.329 210.459 376.616C207.607 375.903 206.003 378.933 203.864 382.676C201.725 386.419 199.053 396.399 200.121 404.419C201.191 412.439 212.419 438.993 216.696 443.983C220.973 448.973 230.776 457.528 237.639 462.955C244.5 468.381 256.44 473.745 256.44 473.745L268.023 486.564C287.981 480.489 312.044 442.913 312.044 442.913C281.212 448.973 267.132 434.003 267.132 434.003C299.391 435.785 311.332 422.953 311.332 422.953C276.044 425.092 263.209 399.769 263.209 399.769L263.235 399.701C268.483 405.887 282.172 411.896 282.172 411.896C282.172 411.896 294.291 415.637 298.212 415.281C302.132 414.925 301.063 414.747 311.043 411.539C321.024 408.331 322.449 405.657 326.371 402.272C330.291 398.885 323.697 383.38 323.697 383.38C314.073 410.648 268.943 403.832 276.291 390.865C283.637 377.897 282.884 364.844 282.884 364.844C276.468 374.112 270.765 374.647 270.765 374.647C268.448 358.785 274.864 347.201 274.864 347.201C249.557 349.161 236.635 334.904 236.635 334.904C246.793 338.289 257.755 336.775 257.755 336.775C240.379 335.083 230.753 321.983 229.773 319.488C228.793 316.993 227.457 312.537 225.319 307.369C223.18 302.201 221.843 295.607 221.129 289.012C220.417 282.419 221.988 272.604 221.988 272.604L221.987 272.603C223.629 272.941 225.505 273.175 227.651 273.257C227.651 273.257 218.989 296.928 240.857 313.248C240.857 313.248 235.848 303.911 235.492 291.257C235.492 291.257 236.621 307.119 257.056 316.387C257.056 316.387 246.452 319.728 239.636 316.832C239.636 316.832 246.808 336.08 272.472 337.239C274.315 337.321 275.979 337.28 277.492 337.136C279.005 337.28 280.669 337.321 282.512 337.239C308.176 336.08 315.348 316.832 315.348 316.832C308.532 319.728 297.928 316.387 297.928 316.387C318.364 307.119 319.492 291.257 319.492 291.257C319.136 303.911 314.127 313.248 314.127 313.248C335.995 296.928 327.333 273.257 327.333 273.257C341.649 272.712 344.071 265.385 344.071 265.385C345.333 263.011 328.937 259.803 323.947 258.377Z" fill="#6CA8DF"/>
<path fill-rule="evenodd" clip-rule="evenodd" d="M206.068 354.471C205.54 356.289 204.627 361.969 203.352 368.028C203.897 368.541 204.457 369.068 205.029 369.604C205.233 364.535 205.672 356.652 206.068 354.471Z" fill="#6CA8DF"/>
<path fill-rule="evenodd" clip-rule="evenodd" d="M348.613 193.84C348.613 193.84 341.148 176.572 320.652 174.433C320.652 174.433 330.569 177.201 331.524 181.293C331.524 181.293 322.881 184.948 312.276 178.799C312.276 178.799 315.039 185.572 323.86 188.333C323.86 188.333 312.544 192.968 298.108 183.968C298.108 183.968 289.793 191.684 277.492 191.245C265.191 191.684 256.876 183.968 256.876 183.968C242.44 192.968 231.124 188.333 231.124 188.333C239.945 185.572 242.708 178.799 242.708 178.799C232.104 184.948 223.46 181.293 223.46 181.293C224.415 177.201 234.332 174.433 234.332 174.433C213.836 176.572 206.371 193.84 206.371 193.84C200.292 198.937 206.351 197.78 211.609 197.691C216.867 197.601 216.153 197.423 222.48 196.888C228.807 196.353 226.489 196.977 235.847 197.601C245.204 198.225 242.975 198.136 250.372 199.383C257.768 200.631 254.916 201.255 257.5 204.195C260.084 207.136 259.104 208.919 259.549 211.503C259.996 214.087 261.153 213.819 263.649 214.888C266.144 215.957 269.441 215.333 275.144 215.333C276.12 215.333 276.876 215.321 277.492 215.295C278.108 215.321 278.864 215.333 279.84 215.333C285.543 215.333 288.84 215.957 291.335 214.888C293.831 213.819 294.989 214.087 295.435 211.503C295.88 208.919 294.9 207.136 297.484 204.195C300.068 201.255 297.216 200.631 304.612 199.383C312.009 198.136 309.781 198.225 319.137 197.601C328.495 196.977 326.177 196.353 332.504 196.888C338.831 197.423 338.119 197.601 343.376 197.691C348.633 197.78 354.692 198.937 348.613 193.84Z" fill="#6CA8DF"/>
<path fill-rule="evenodd" clip-rule="evenodd" d="M309.521 247.452C308.273 243.799 303.372 241.393 302.748 240.948C302.125 240.503 293.304 215.953 287.2 212.433C283.532 210.317 279.848 210.181 277.492 210.409C275.136 210.181 271.452 210.317 267.784 212.433C261.68 215.953 252.859 240.503 252.236 240.948C251.612 241.393 246.711 243.799 245.463 247.452C244.216 251.107 243.771 255.651 243.592 256.631C243.413 257.611 240.139 267.621 241.097 273.919C242.056 280.215 249.163 287.999 249.163 287.999L253.44 297.623L266.629 307.336C266.629 307.336 272.027 309.069 277.492 308.713C282.957 309.069 288.356 307.336 288.356 307.336L301.544 297.623L305.821 287.999C305.821 287.999 312.928 280.215 313.887 273.919C314.845 267.621 311.571 257.611 311.392 256.631C311.213 255.651 310.768 251.107 309.521 247.452Z" fill="white"/>
<path fill-rule="evenodd" clip-rule="evenodd" d="M290.08 287.34L285.715 282.617C282.723 285.936 279.789 287.333 277.492 287.875C275.195 287.333 272.261 285.936 269.271 282.617L264.904 287.34C264.904 287.34 270.984 293.521 277.492 293.288C284 293.521 290.08 287.34 290.08 287.34Z" fill="#6CA8DF"/>
<path fill-rule="evenodd" clip-rule="evenodd" d="M296.785 287.765C294.105 297.988 283.577 300.536 277.492 301.144C271.407 300.536 260.879 297.988 258.199 287.765C258.199 287.765 252.14 284.913 250.803 287.408C250.336 288.281 250.081 289.109 250.007 289.897L252.3 295.056C253.033 295.644 253.651 295.744 254.903 297.121C255.464 297.74 257.056 299.68 259.364 301.985L266.629 307.336C266.629 307.336 272.027 309.069 277.492 308.713C282.957 309.069 288.356 307.336 288.356 307.336L295.62 301.985C297.928 299.68 299.52 297.74 300.083 297.121C301.335 295.744 301.951 295.644 302.684 295.056L304.977 289.897C304.903 289.109 304.648 288.281 304.181 287.408C302.844 284.913 296.785 287.765 296.785 287.765Z" fill="#6CA8DF"/>
<path fill-rule="evenodd" clip-rule="evenodd" d="M289.191 274.419C289.191 274.419 296.32 279.409 303.893 277.003C303.893 277.003 286.424 275.583 284.821 259.005L284.289 250.716L286.443 251.069C286.443 251.069 292.399 253.835 295.428 248.667L299.853 249.417L300.685 245.012L301.431 238.035C299.292 232.921 294.951 222.316 290.856 216.344C289.333 214.607 287.909 213.669 286.792 214.203C286.792 214.203 292.129 227.16 291.687 232.269C291.687 232.269 283.425 231.645 280.459 240.379C279.639 242.793 278.576 243.707 277.492 243.703C276.408 243.707 275.345 242.793 274.525 240.379C271.559 231.645 263.297 232.269 263.297 232.269C262.855 227.16 268.192 214.203 268.192 214.203C267.075 213.669 265.651 214.607 264.128 216.344C260.033 222.316 255.692 232.921 253.555 238.035L254.299 245.012L255.132 249.417L259.556 248.667C262.587 253.835 268.541 251.069 268.541 251.069L270.695 250.716L270.163 259.005C268.56 275.583 251.091 277.003 251.091 277.003C258.665 279.409 265.793 274.419 265.793 274.419C251.139 287.364 241.921 273.643 241.921 273.643C241.667 275.099 241.864 276.46 242.22 277.604C242.717 278.757 243.328 279.901 243.979 280.987C244.011 281.008 248.604 284.223 250.912 284.667C253.229 285.112 260.715 285.023 263.744 284.132C266.775 283.241 267.932 281.548 271.315 279.051C274.697 276.555 273.101 276.825 274.348 274.152C275.596 271.479 275.596 269.964 276.755 267.557C277.023 267.001 277.261 266.181 277.492 265.249C277.723 266.181 277.961 267.001 278.231 267.557C279.388 269.964 279.388 271.479 280.636 274.152C281.884 276.825 280.287 276.555 283.669 279.051C287.052 281.548 288.211 283.241 291.24 284.132C294.269 285.023 301.755 285.112 304.072 284.667C306.38 284.223 310.973 281.008 311.005 280.987C311.656 279.901 312.267 278.757 312.764 277.604C313.12 276.46 313.317 275.099 313.063 273.643C313.063 273.643 303.845 287.364 289.191 274.419Z" fill="#6CA8DF"/>
<path fill-rule="evenodd" clip-rule="evenodd" d="M299.071 244.276C299.071 244.276 298.893 236.079 290.249 237.504C281.605 238.929 281.516 252.741 281.516 252.741C279.912 254.969 277.492 254.701 277.492 254.701C277.492 254.701 275.072 254.969 273.468 252.741C273.468 252.741 273.379 238.929 264.736 237.504C256.092 236.079 255.913 244.276 255.913 244.276C255.913 244.276 254.132 240.267 258.855 233.316C263.577 226.365 264.648 217.009 270.796 211.128L266.252 211.039C266.252 211.039 265.093 208.097 265.805 204.979C273.053 204.461 281.931 204.461 289.179 204.979C289.891 208.097 288.733 211.039 288.733 211.039L284.188 211.128C290.336 217.009 291.407 226.365 296.129 233.316C300.852 240.267 299.071 244.276 299.071 244.276ZM203.319 428.104C203.319 428.104 209.913 445.036 226.667 458.58C243.419 472.124 258.747 488.164 263.38 505.629C263.38 505.629 329.323 474.62 342.867 416.52C342.867 416.52 372.451 440.759 430.907 430.421C430.907 430.421 346.432 431.668 336.808 376.777C336.808 376.777 341.085 379.807 342.956 383.995C342.956 383.995 345.987 371.343 343.313 358.153L348.837 361.717C348.837 361.717 345.453 305.757 351.869 264.411L351.132 263.568C357.52 261.08 360.827 257.285 360.827 257.285C366.173 241.78 363.323 228.235 363.323 228.235C360.449 238.924 354.055 250.691 354.055 250.691C329.104 265.127 310.747 247.661 302.549 229.661C294.351 211.66 302.728 204.532 302.728 204.532C325.54 196.691 352.987 202.749 352.987 202.749C362.075 205.601 364.392 222.889 364.392 222.889C364.392 222.889 370.095 211.839 364.215 200.433C358.333 189.027 357.799 180.116 365.461 162.472C373.125 144.828 375.264 124.689 375.264 124.689C376.333 64.0946 319.839 60.5307 319.839 60.5307C392.455 94.0373 353.425 154.811 348.792 168.533C344.157 182.256 348.613 193.84 348.613 193.84L345.405 193.929C340.724 185.652 325 183.681 325 183.681C333.02 187.603 336.763 193.573 336.763 193.573C325.535 192.503 298.98 193.751 291.227 196.245C281.963 199.227 273.02 199.227 263.757 196.245C256.004 193.751 229.449 192.503 218.223 193.573C218.223 193.573 221.964 187.603 229.984 183.681C229.984 183.681 214.26 185.652 209.579 193.929L206.371 193.84C206.371 193.84 210.827 182.256 206.193 168.533C201.559 154.811 162.529 94.0373 235.145 60.5307C235.145 60.5307 178.651 64.0946 179.72 124.689C179.72 124.689 181.859 144.828 189.523 162.472C197.185 180.116 196.651 189.027 190.769 200.433C184.889 211.839 190.592 222.889 190.592 222.889C190.592 222.889 192.909 205.601 201.999 202.749C201.999 202.749 229.444 196.691 252.256 204.532C252.256 204.532 260.632 211.66 252.435 229.661C244.236 247.661 225.88 265.127 200.929 250.691C200.929 250.691 194.535 238.924 191.661 228.235C191.661 228.235 188.809 241.78 194.156 257.285C194.156 257.285 196.533 260.012 201.148 262.357C201.589 268.659 203.615 303.276 197.271 333.473C197.271 333.473 206.479 317.739 208.143 310.304L210.913 265.385C218.687 266.44 229.08 264.94 241.92 256.751L242.367 263.167L247.713 256.127C247.713 256.127 246.465 250.692 250.832 245.791C250.832 245.791 253.772 249.801 255.823 249.444C257.872 249.088 260.188 245.969 260.188 245.969C260.188 245.969 262.595 249.355 264.644 248.732C266.693 248.108 267.317 246.503 267.317 246.503C267.317 246.503 269.277 250.959 268.832 257.375C268.832 257.375 271.579 261.475 274.536 261.475C274.536 261.475 277.476 278.761 259.299 283.039C241.12 287.316 241.12 268.424 241.12 268.424C241.12 268.424 238.625 276.98 245.219 286.068C245.219 286.068 247.179 307.989 271.417 308.347C271.417 308.347 256.447 302.643 252.525 289.099C252.525 289.099 257.872 289.721 262.328 288.119C262.328 288.119 264.377 293.553 273.912 292.841C273.912 292.841 268.655 289.989 267.319 285.891C267.319 285.891 274.835 284.108 277.492 275.375C280.151 284.108 287.665 285.891 287.665 285.891C286.329 289.989 281.072 292.841 281.072 292.841C290.607 293.553 292.656 288.119 292.656 288.119C297.112 289.721 302.459 289.099 302.459 289.099C298.537 302.643 283.567 308.347 283.567 308.347C307.804 307.989 309.765 286.068 309.765 286.068C316.359 276.98 313.864 268.424 313.864 268.424C313.864 268.424 313.864 287.316 295.685 283.039C277.508 278.761 280.449 261.475 280.449 261.475C283.405 261.475 286.152 257.375 286.152 257.375C285.707 250.959 287.667 246.503 287.667 246.503C287.667 246.503 288.291 248.108 290.34 248.732C292.389 249.355 294.796 245.969 294.796 245.969C294.796 245.969 297.113 249.088 299.163 249.444C301.212 249.801 304.152 245.791 304.152 245.791C308.519 250.692 307.271 256.127 307.271 256.127L312.617 263.167L313.065 256.751C326.524 265.336 337.295 266.568 345.177 265.215L344.92 265.659C344.92 265.659 337.435 306.292 342.068 343.005C342.068 343.005 335.296 340.333 332.267 332.312C332.267 332.312 330.484 342.828 334.94 353.165C334.94 353.165 328.701 349.779 326.563 345.5C326.563 345.5 329.772 358.333 336.188 366.709C336.188 366.709 332.088 364.749 329.237 360.651C329.237 360.651 326.388 397.72 289.496 407.344C289.496 407.344 294.843 408.68 299.744 408.68C299.744 408.68 284.596 416.701 263.209 399.769C263.209 399.769 288.337 438.8 325.764 407.433C325.764 407.433 320.952 423.473 302.773 437.373C302.773 437.373 324.339 430.067 333.963 415.631C333.963 415.631 327.904 463.395 268.023 486.564C268.023 486.564 274.081 481.929 282.993 463.751C282.993 463.751 216.34 473.375 205.645 397.097C205.645 397.097 215.627 434.167 247.349 443.079C247.349 443.079 218.121 419.552 218.835 391.037C218.835 391.037 227.032 399.949 240.933 404.048C254.835 408.147 269.047 428.331 291.548 427.573C291.548 427.573 266.776 416.701 258.577 398.523C258.577 398.523 219.727 395.851 209.747 358.424L213.489 336.86L206.539 340.603C206.539 340.603 209.389 328.483 210.816 317.791C210.816 317.791 197.271 340.78 194.776 351.652L203.865 350.227C177.06 430.639 176.128 472.543 204.924 561.235C204.924 561.235 187.28 479.075 203.319 428.104Z" fill="black"/>
<path fill-rule="evenodd" clip-rule="evenodd" d="M307.541 154.72C311.017 156.324 313.691 161.848 313.691 161.848C343.275 134.047 321.888 73.808 321.888 73.808C326.879 132.62 309.235 146.433 309.235 146.433C307.541 142.601 304.691 141.443 304.691 141.443C301.304 154.631 292.661 167.552 292.661 167.552C292.661 167.552 304.601 161.671 307.541 154.72Z" fill="black"/>
<path fill-rule="evenodd" clip-rule="evenodd" d="M233.096 73.808C233.096 73.808 211.709 134.047 241.295 161.848C241.295 161.848 243.967 156.324 247.443 154.72C250.384 161.671 262.323 167.552 262.323 167.552C262.323 167.552 253.68 154.631 250.293 141.443C250.293 141.443 247.443 142.601 245.749 146.433C245.749 146.433 228.105 132.62 233.096 73.808Z" fill="black"/>
<path fill-rule="evenodd" clip-rule="evenodd" d="M266.423 159.977C266.423 159.977 272.549 164.972 277.492 166.325C282.435 164.972 288.561 159.977 288.561 159.977C288.651 163.809 287.225 170.849 287.225 170.849C297.919 159.799 295.423 149.64 295.423 149.64C288.219 156.137 280.968 158.479 277.492 159.277C274.016 158.479 266.765 156.137 259.561 149.64C259.561 149.64 257.067 159.799 267.76 170.849C267.76 170.849 266.333 163.809 266.423 159.977Z" fill="black"/>
<path fill-rule="evenodd" clip-rule="evenodd" d="M481.551 429.005C481.551 429.005 589.908 430.431 609.868 510.273C609.868 510.273 577.061 492.92 554.977 461.797C554.977 461.797 620.919 553.403 542.503 690.988L543.751 704.889C543.751 704.889 533.413 716.296 506.68 706.493C506.68 706.493 525.037 708.632 535.195 704.355L535.017 697.048H526.105C526.105 697.048 519.512 663.899 533.771 634.671C533.771 634.671 525.572 648.928 502.76 653.563C502.76 653.563 539.117 632.532 548.74 597.601C548.74 597.601 509.888 653.563 433.967 654.275C433.967 654.275 435.036 632.176 424.343 613.641C424.343 613.641 427.908 638.236 418.64 655.701C409.372 673.167 402.125 685.001 398.323 709.167L365.887 705.603C365.887 705.603 365.572 716.677 382.996 723.78C382.996 723.78 373.263 726.477 363.927 722.177C363.927 722.177 360.185 712.196 354.125 691.88C348.065 671.563 288.896 638.413 313.847 574.255C313.847 574.255 292.46 591.007 294.599 635.205C249.688 637.344 211.365 576.569 211.365 576.569C211.365 576.569 219.207 613.817 264.117 646.255C264.117 646.255 289.783 683.323 288 733.224C288 733.224 299.763 745.344 327.565 737.145C327.565 737.145 342.179 721.105 343.605 694.016C343.605 694.016 352.16 707.205 359.288 732.512C359.288 732.512 378.892 742.849 403.487 729.304C403.487 729.304 413.468 701.501 416.675 697.581C416.675 697.581 418.813 712.195 417.388 722.175C417.388 722.175 435.209 729.66 455.527 718.255C455.527 718.255 473.705 690.808 480.121 662.649C480.121 662.649 496.656 673.213 497.943 713.264C497.943 713.264 526.103 729.661 549.628 711.839C549.628 711.839 557.827 687.78 572.084 657.125C586.343 626.472 604.164 579.779 589.551 522.748C589.551 522.748 603.452 541.283 630.184 536.292C630.184 536.292 644.8 419.737 481.551 429.005Z" fill="black"/>
<path fill-rule="evenodd" clip-rule="evenodd" d="M223.036 309.507C222.857 341.943 249.591 329.199 249.591 329.199C232.125 327.773 231.857 314.585 231.857 314.585C236.403 314.585 240.857 313.248 240.857 313.248C220.541 301.841 221.341 277.961 221.341 277.961C221.341 277.961 213.233 295.071 223.036 309.507Z" fill="black"/>
<path fill-rule="evenodd" clip-rule="evenodd" d="M297.729 326.259C297.729 326.259 292.899 331.795 277.492 332.237C262.085 331.795 257.255 326.259 257.255 326.259C262.957 342.121 277.492 341.229 277.492 341.229C277.492 341.229 292.027 342.121 297.729 326.259Z" fill="black"/>
<path fill-rule="evenodd" clip-rule="evenodd" d="M305.393 329.199C305.393 329.199 332.127 341.943 331.948 309.507C341.751 295.071 333.643 277.961 333.643 277.961C333.643 277.961 334.444 301.841 314.127 313.248C314.127 313.248 318.581 314.585 323.127 314.585C323.127 314.585 322.859 327.773 305.393 329.199Z" fill="black"/>
<path fill-rule="evenodd" clip-rule="evenodd" d="M268.76 386.055C270.623 376.739 283.656 376.108 278.384 350.055C278.384 350.055 265.017 368.411 268.76 386.055Z" fill="black"/>
<path fill-rule="evenodd" clip-rule="evenodd" d="M272.503 399.777L279.453 399.6C279.453 399.6 277.208 388.996 281.948 378.213C281.948 378.213 271.789 390.511 272.503 399.777Z" fill="black"/>
<path fill-rule="evenodd" clip-rule="evenodd" d="M277.491 650.917C277.491 650.917 293.531 665.532 296.917 727.017C307.967 731.651 316.521 730.225 316.521 730.225C302.976 727.729 301.729 715.433 301.729 715.433L319.729 717.037C326.323 687.809 320.085 676.224 316.343 668.739C312.6 661.253 277.491 650.917 277.491 650.917Z" fill="#6CA8DF"/>
<path fill-rule="evenodd" clip-rule="evenodd" d="M432.365 713.295C432.365 713.295 444.484 719.176 456.069 703.671L443.059 705.809L448.227 681.749C448.227 681.749 461.059 675.156 464.444 668.027C464.444 668.027 447.603 675.779 433.435 677.027L432.365 713.295Z" fill="#6CA8DF"/>
<path fill-rule="evenodd" clip-rule="evenodd" d="M220.252 84.9667C220.252 84.9667 186.389 115.264 212.944 160.977C217.4 159.819 220.964 156.611 220.964 156.611C218.648 161.067 210.449 165.879 210.449 165.879C222.568 163.561 224.885 153.759 224.885 153.759C209.915 122.392 220.252 84.9667 220.252 84.9667Z" fill="black"/>
<path fill-rule="evenodd" clip-rule="evenodd" d="M334.732 84.9667C334.732 84.9667 345.069 122.392 330.099 153.759C330.099 153.759 332.416 163.561 344.535 165.879C344.535 165.879 336.336 161.067 334.02 156.611C334.02 156.611 337.584 159.819 342.04 160.977C368.595 115.264 334.732 84.9667 334.732 84.9667Z" fill="black"/>
<path d="M250.449 215.359V215.196C250.451 215.251 250.451 215.305 250.449 215.359Z" fill="#FFF9FC"/>
<mask id="mask0_444_70" style="mask-type:luminance" maskUnits="userSpaceOnUse" x="196" y="206" width="55" height="45">
<path d="M219.124 250.417H218.789C214.12 250.383 209.509 248.944 205.095 246.596C201.541 239.824 188.541 213.777 203.495 208.159C208.393 207.103 213.999 206.549 218.952 206.279C221.012 206.167 223.104 206.104 225.213 206.104C233.229 206.104 241.483 206.995 249.024 209.367C249.612 210.312 250.024 211.635 250.199 212.533C250.367 213.397 250.445 214.289 250.449 215.196V215.359C250.431 219.456 248.927 223.845 247.336 227.339C243.592 235.559 237.309 244.065 229.015 248.077C225.719 249.671 222.407 250.393 219.124 250.417Z" fill="white"/>
</mask>
<g mask="url(#mask0_444_70)">
<path d="M219.124 250.417H218.789C214.12 250.383 209.509 248.944 205.095 246.596C201.541 239.824 188.541 213.777 203.495 208.159C208.393 207.103 213.999 206.549 218.952 206.279C221.012 206.167 223.104 206.104 225.213 206.104C233.229 206.104 241.483 206.995 249.024 209.367C249.612 210.312 250.024 211.635 250.199 212.533C250.367 213.397 250.445 214.289 250.449 215.196V215.359C250.431 219.456 248.927 223.845 247.336 227.339C243.592 235.559 237.309 244.065 229.015 248.077C225.719 249.671 222.407 250.393 219.124 250.417Z" fill="url(#paint0_linear_444_70)"/>
</g>
<path d="M358.421 219.913V219.743C358.421 219.8 358.421 219.856 358.421 219.913ZM304.635 215.344C304.635 215.3 304.635 215.257 304.635 215.213V215.344Z" fill="#FFF9FC"/>
<mask id="mask1_444_70" style="mask-type:luminance" maskUnits="userSpaceOnUse" x="304" y="206" width="55" height="45">
<path d="M336.012 250.3C327.424 250.299 319.812 245.575 313.477 237.071C311.223 234.044 309.303 230.732 307.74 227.297C306.153 223.815 304.651 219.429 304.635 215.344V215.213C304.637 214.313 304.715 213.428 304.88 212.572C305.049 211.688 305.452 210.388 306.025 209.452C313.547 207.091 321.777 206.205 329.771 206.205C331.877 206.205 333.969 206.267 336.027 206.379C340.973 206.649 346.569 207.201 351.461 208.255C356.596 210.195 358.401 214.572 358.421 219.743V219.913C358.384 229.663 352.103 242.159 349.816 246.521C344.988 249.083 340.375 250.3 336.012 250.3Z" fill="white"/>
</mask>
<g mask="url(#mask1_444_70)">
<path d="M336.012 250.3C327.424 250.299 319.812 245.575 313.477 237.071C311.223 234.044 309.303 230.732 307.74 227.297C306.153 223.815 304.651 219.429 304.635 215.344V215.213C304.637 214.313 304.715 213.428 304.88 212.572C305.049 211.688 305.452 210.388 306.025 209.452C313.547 207.091 321.777 206.205 329.771 206.205C331.877 206.205 333.969 206.267 336.027 206.379C340.973 206.649 346.569 207.201 351.461 208.255C356.596 210.195 358.401 214.572 358.421 219.743V219.913C358.384 229.663 352.103 242.159 349.816 246.521C344.988 249.083 340.375 250.3 336.012 250.3Z" fill="url(#paint1_linear_444_70)"/>
</g>
<path fill-rule="evenodd" clip-rule="evenodd" d="M580.805 684.512L575.111 680.212C575.111 680.212 568.16 679.164 565.635 681.015C563.109 682.864 561.524 685.137 558.355 686.741C555.184 688.347 555.184 689.104 551.177 689.46L547.903 700.381C547.903 700.381 537.243 703.144 535.117 705.24C532.993 707.335 528.324 718.789 528.324 718.789C528.324 718.789 521.497 724.94 520.94 725.965C520.381 726.991 518.432 733.856 518.432 733.856C518.432 733.856 526.565 734.88 533.916 734.791C541.267 734.701 554.887 737.555 566.244 734.433C577.6 731.315 594.321 723.38 595.436 718.833C596.551 714.287 588.26 699.756 588.26 699.756L580.805 684.512Z" fill="#8A7B89"/>
<path fill-rule="evenodd" clip-rule="evenodd" d="M576.783 679.477L568.805 680.012C568.805 680.012 575.529 680.457 576.017 682.151C576.504 683.845 569.119 688.257 559.783 688.079C559.783 688.079 567.412 690.976 576.504 689.907C576.504 689.907 586.816 698.732 588.907 712.996C588.907 712.996 586.572 706.399 584.587 704.527C584.587 704.527 581.556 708.092 576.26 709.875C576.26 709.875 584.168 714.243 584.239 716.071C584.308 717.899 575.983 728.64 575.983 728.64C575.983 728.64 574.693 719.013 572.603 715.447C572.603 715.447 572.916 712.639 574.588 711.257C574.588 711.257 566.716 701.897 550.203 701.005C550.203 701.005 560.375 704.749 565.531 717.229C565.531 717.229 562.953 712.996 561.228 711.48C561.228 711.48 560.323 713.308 558.024 713.932C558.024 713.932 558.86 715.045 560.219 715.045C560.219 715.045 563.703 720.216 564.956 725.788C564.956 725.788 561.751 729.8 554.227 730.869C554.227 730.869 558.929 731.404 562.587 730.869C562.587 730.869 555.028 734.257 547.293 732.161C547.293 732.161 544.611 727.259 540.849 724.985C540.849 724.985 543.113 730.289 542.731 732.207C542.731 732.207 533.603 734.257 535.972 728.819C528.723 728.457 528.94 733.891 518.432 733.856C518.432 733.856 540.797 739.383 558.773 738.312C576.748 737.243 593.121 729.755 602.597 723.515C602.597 723.515 595.072 700.693 586.712 689.64C586.712 689.64 581.973 681.661 576.783 679.477Z" fill="black"/>
<path fill-rule="evenodd" clip-rule="evenodd" d="M537.225 724.717L536.981 721.731C536.981 721.731 549.383 723.247 556.072 716.115C547.103 721.148 539.591 718.737 530.536 717.007C530.536 717.007 534.368 719.101 537.225 724.717Z" fill="black"/>
<path fill-rule="evenodd" clip-rule="evenodd" d="M565.635 681.015C563.109 682.864 561.524 685.137 558.355 686.741C555.184 688.347 555.184 689.104 551.177 689.46L547.903 700.381C547.903 700.381 537.243 703.144 535.117 705.24C532.993 707.335 528.324 718.789 528.324 718.789C528.324 718.789 521.497 724.94 520.94 725.965C520.381 726.991 518.432 733.856 518.432 733.856C518.432 733.856 519.071 733.936 520.149 734.049C520.876 730.988 522.261 727.948 522.261 727.948C522.261 727.948 526.164 722.777 527.767 720.772C529.369 718.767 535.361 720.015 535.361 720.015L540.621 719.391C531.563 716.895 534.211 710.253 536.196 708.024C538.183 705.796 548.145 702.809 548.145 702.809C553.023 702.631 562.185 708.916 562.185 708.916C558.213 702.453 550.863 698.888 550.863 698.888C550.967 695.677 552.779 690.373 552.779 690.373C555.74 690.151 558.544 688.792 558.544 688.792C562.316 688.873 572.409 686.496 572.409 686.496C572.409 686.496 565.529 686.496 563.823 686.028C562.115 685.56 565.547 683.599 566.713 682.373C567.88 681.147 572.88 680.256 572.88 680.256L573.225 680.009C570.98 679.836 567.321 679.779 565.635 681.015Z" fill="#FFFEF4"/>
<defs>
<linearGradient id="paint0_linear_444_70" x1="231.551" y1="207.565" x2="214.732" y2="250.567" gradientUnits="userSpaceOnUse">
<stop stop-color="#6CA8DF"/>
<stop offset="1" stop-color="#FFF9FC"/>
</linearGradient>
<linearGradient id="paint1_linear_444_70" x1="342.852" y1="206.544" x2="322.291" y2="245.961" gradientUnits="userSpaceOnUse">
<stop stop-color="#6CA8DF"/>
<stop offset="1" stop-color="#FFF9FC"/>
</linearGradient>
</defs>
</svg>
